grf
version=1
nRows=7
nColumns=37
inDegrees=no
endheader
time	ground_force_1_vx	ground_force_1_vy	ground_force_1_vz	ground_force_1_px	ground_force_1_py	ground_force_1_pz	ground_moment_1_mx	ground_moment_1_my	ground_moment_1_mz	ground_force_2_vx	ground_force_2_vy	ground_force_2_vz	ground_force_2_px	ground_force_2_py	ground_force_2_pz	ground_moment_2_mx	ground_moment_2_my	ground_moment_2_mz	ground_force_3_vx	ground_force_3_vy	ground_force_3_vz	ground_force_3_px	ground_force_3_py	ground_force_3_pz	ground_moment_3_mx	ground_moment_3_my	ground_moment_3_mz	ground_force_4_vx	ground_force_4_vy	ground_force_4_vz	ground_force_4_px	ground_force_4_py	ground_force_4_pz	ground_moment_4_mx	ground_moment_4_my	ground_moment_4_mz
      0.00000000	      0.00000000	     -0.00000000	      0.00000000	      0.00000000	      0.00000000	      0.00000000	      0.00000000	      0.00000000	      0.00000000	     -5.77519941	     38.60519791	   -332.01693726	   -251.23358314	  -1103.97125731	      0.00000000	      0.00000000	      0.00000000	   1511.48722446	      1.24194941	    -36.12357336	   -315.54095459	   -279.22477153	   -706.84901411	      0.00000000	      0.00000000	     -0.00000000	  -1801.61345093	      0.00000000	     -0.00000000	      0.00000000	      0.00000000	      0.00000000	      0.00000000	      0.00000000	      0.00000000	      0.00000000
      0.01000000	      0.00000000	     -0.00000000	      0.00000000	      0.00000000	      0.00000000	      0.00000000	      0.00000000	      0.00000000	      0.00000000	     -5.92269707	     38.83767319	   -330.36105347	   -250.92498802	  -1101.44318724	      0.00000000	      0.00000000	      0.00000000	   1462.51329272	      0.87930736	    -36.04675678	   -313.91799927	   -278.65106547	   -708.42479818	      0.00000000	     -0.00000000	     -0.00000000	  -1698.73869813	      0.00000000	     -0.00000000	      0.00000000	      0.00000000	      0.00000000	      0.00000000	      0.00000000	      0.00000000	      0.00000000
      0.02000000	      0.00000000	     -0.00000000	      0.00000000	      0.00000000	      0.00000000	      0.00000000	      0.00000000	      0.00000000	      0.00000000	     -5.72093821	     39.16009903	   -333.40185547	   -251.76812481	  -1102.55800102	      0.00000000	      0.00000000	      0.00000000	   1526.32919480	      0.37768970	    -35.82448198	   -313.09909058	   -278.75626092	   -708.50150532	      0.00000000	     -0.00000000	     -0.00000000	  -1685.05737942	      0.00000000	     -0.00000000	      0.00000000	      0.00000000	      0.00000000	      0.00000000	      0.00000000	      0.00000000	      0.00000000
      0.03000000	      0.00000000	     -0.00000000	      0.00000000	      0.00000000	      0.00000000	      0.00000000	      0.00000000	      0.00000000	      0.00000000	     -5.57635021	     39.16080475	   -329.92041016	   -251.48901324	  -1099.78093527	      0.00000000	      0.00000000	      0.00000000	   1637.33591809	      0.28869854	    -35.80243303	   -311.65917969	   -279.23086524	   -708.23378619	      0.00000000	     -0.00000000	     -0.00000000	  -1676.28891444	      0.00000000	     -0.00000000	      0.00000000	      0.00000000	      0.00000000	      0.00000000	      0.00000000	      0.00000000	      0.00000000
      0.04000000	      0.00000000	     -0.00000000	      0.00000000	      0.00000000	      0.00000000	      0.00000000	      0.00000000	      0.00000000	      0.00000000	     -6.06631470	     39.01678467	   -331.68023682	   -251.07389742	  -1101.41692495	      0.00000000	      0.00000000	      0.00000000	   1336.40828743	      0.19969186	    -36.11248399	   -311.79388428	   -278.27815734	   -707.86108119	      0.00000000	      0.00000000	     -0.00000000	  -1608.50788866	      0.00000000	     -0.00000000	      0.00000000	      0.00000000	      0.00000000	      0.00000000	      0.00000000	      0.00000000	      0.00000000
      0.05000000	      0.00000000	     -0.00000000	      0.00000000	      0.00000000	      0.00000000	      0.00000000	      0.00000000	      0.00000000	      0.00000000	     -5.68647385	     39.00603867	   -332.95761108	   -251.32318683	  -1101.89640621	      0.00000000	      0.00000000	     -0.00000000	   1590.42696738	      0.53226316	    -35.54911044	   -310.70166016	   -278.26081215	   -708.98367104	      0.00000000	      0.00000000	     -0.00000000	  -1702.19248484	      0.00000000	     -0.00000000	      0.00000000	      0.00000000	      0.00000000	      0.00000000	      0.00000000	      0.00000000	      0.00000000
      0.06000000	      0.00000000	     -0.00000000	      0.00000000	      0.00000000	      0.00000000	      0.00000000	      0.00000000	      0.00000000	      0.00000000	     -6.24473572	     38.91732025	   -333.89245605	   -250.18639560	  -1102.96085765	      0.00000000	      0.00000000	      0.00000000	   1326.33241374	      0.77667331	    -35.62608341	   -310.83044434	   -278.64693086	   -709.79261326	      0.00000000	      0.00000000	      0.00000000	  -1829.93131125	      0.00000000	     -0.00000000	      0.00000000	      0.00000000	      0.00000000	      0.00000000	      0.00000000	      0.00000000	      0.00000000
